<svg xmlns="http://www.w3.org/2000/svg" viewBox="0 0 200 200" enable-background="new 0 0 200 200"><g fill="#13110C"><path d="M170.6 150.6l-15.6-.1h-125.6l6.5-14.1c.1-.1 8.3-19.2 8.3-57.5 0-31.3 14.1-52.4 39.1-59 3-6 9.4-10.1 16.8-10.1s13.8 4.1 16.9 10.1c24.8 6.5 38.9 27.7 38.9 58.9 0 38.3 8.2 57.4 8.3 57.6l6.4 14.2zm-112-20h82.8c-2.7-10.9-5.6-28.1-5.6-51.7 0-24-9.6-37.6-28.5-40.5l-7.3-1.1-7.2 1.1c-19 2.9-28.7 16.6-28.7 40.6.1 23.5-2.8 40.7-5.5 51.6zM100.1 190.1c-6.1 0-24.5 0-26.8-18.9l-1.4-11.2h56.3l-1.4 11.2c-2.3 18.9-20.7 18.9-26.7 18.9z"/></g></svg>