<svg xmlns="http://www.w3.org/2000/svg" viewBox="0 0 200 200" enable-background="new 0 0 200 200"><path d="M84 190c-21.8-.5-39-18.9-39-40.7v-83.5c0-30.1 24-55.3 54.1-55.8 30.8-.5 55.9 24.4 55.9 55v85c0 5.5-4.5 10-10 10s-10-4.5-10-10v-84.3c0-19.1-15-35.2-34.2-35.6-19.6-.6-35.8 15.3-35.8 34.9v84.5c0 10.8 8.4 20.1 19.2 20.5 11.4.4 20.8-8.7 20.8-20v-84.8c0-2.6-1.9-4.9-4.5-5.2-3-.3-5.5 2.1-5.5 5v40c0 5.5-4.5 10-10 10s-10-4.5-10-10v-39.4c0-14 11.4-25.8 25.4-25.6 13.6.2 24.6 11.4 24.6 25v85c0 22.4-18.5 40.5-41 40z"/></svg>