<svg xmlns="http://www.w3.org/2000/svg" viewBox="0 0 200 200" enable-background="new 0 0 200 200"><path d="M130 30c-18.5 0-35.1 8.4-46.1 21.6-4.5-1-9.1-1.6-13.9-1.6-33.1 0-60 26.9-60 60s26.9 60 60 60c18.5 0 35.1-8.4 46.1-21.6 4.5 1.1 9.1 1.6 13.9 1.6 33.1 0 60-26.9 60-60s-26.9-60-60-60zm-22.3 93.2c-10.6-7.2-17.7-19.4-17.7-33.2 0-4.6.8-9.1 2.3-13.2 10.6 7.2 17.7 19.4 17.7 33.2 0 4.6-.8 9.1-2.3 13.2zm-37.7 26.8c-22.1 0-40-17.9-40-40s17.9-40 40-40c1.1 0 2.3.1 3.4.2-2.2 6.2-3.4 12.8-3.4 19.8 0 20.8 10.6 39.1 26.6 49.8-7.1 6.4-16.4 10.2-26.6 10.2zm60-20c-1.1 0-2.3-.1-3.4-.2 2.2-6.2 3.4-12.9 3.4-19.8 0-20.8-10.6-39.1-26.6-49.8 7.1-6.4 16.4-10.2 26.6-10.2 22.1 0 40 17.9 40 40s-17.9 40-40 40z"/></svg>