<svg xmlns="http://www.w3.org/2000/svg" viewBox="0 0 200 200" enable-background="new 0 0 200 200"><path d="M160 20c-15.5 0-23.7 3-30.9 5.6-6.5 2.4-12.1 4.4-24.1 4.4-12 0-17.6-2-24.1-4.4-7.2-2.6-15.4-5.6-30.9-5.6h-8c-6.6 0-12 5.4-12 12v148c0 5.5 4.5 10 10 10s10-4.5 10-10v-45c11.9 0 17.6 2 24.1 4.4 7.2 2.6 15.4 5.6 30.9 5.6 15.5 0 23.7-3 30.9-5.6 6.5-2.4 12.1-4.4 24.1-4.4 5.5 0 10-4.5 10-10v-95c0-5.5-4.5-10-10-10zm-10 95.5c-9.4.9-15.4 3.1-20.9 5.1-6.5 2.4-12.1 4.4-24.1 4.4-12 0-17.6-2-24.1-4.4-7.2-2.6-15.4-5.6-30.9-5.6v-75c11.9 0 17.6 2 24.1 4.4 7.2 2.6 15.4 5.6 30.9 5.6 15.5 0 23.7-3 30.9-5.6 4.4-1.6 8.3-3 14.1-3.8v74.9z"/></svg>