<svg xmlns="http://www.w3.org/2000/svg" viewBox="0 0 200 200" enable-background="new 0 0 200 200"><g><path d="M100 10c-49.7 0-90 40.3-90 90s40.3 90 90 90 90-40.3 90-90-40.3-90-90-90zm0 160c-38.6 0-70-31.4-70-70s31.4-70 70-70 70 31.4 70 70-31.4 70-70 70zM125.8 52.9c-3.1-2.6-6.6-4.7-10.7-6.1-4.1-1.4-8.5-2.1-13.3-2.1-5.7 0-10.9.9-15.5 2.7-4.6 1.8-8.6 4.4-11.8 7.7-3.3 3.3-5.8 7.3-7.5 12-1.7 4.7-2.6 9.9-2.6 15.6h17.8c0-7.1 1.5-12.7 4.6-16.9 3.1-4.2 7.8-6.3 14.3-6.3 1.3 0 2.9.3 4.7.9 1.8.6 3.4 1.6 5 3s2.9 3.1 4 5.4c1.1 2.2 1.6 4.9 1.6 8 0 2.6-.3 4.8-1 6.7-.7 1.9-1.6 3.6-2.8 5.1-1.2 1.5-2.5 2.9-4 4.1-1.5 1.2-3.1 2.6-4.8 4-2.1 1.8-3.9 3.6-5.4 5.4-1.5 1.8-2.8 3.9-3.8 6.3s-1.8 5.2-2.3 8.3c-.5 3.2-.7 7-.7 11.6h16.8c0-3.7.3-6.9 1-9.5.7-2.6 1.6-4.9 2.9-6.8 1.2-1.9 2.7-3.7 4.4-5.2 1.7-1.6 3.5-3.2 5.5-4.8l5-4.4c1.7-1.5 3.1-3.2 4.4-5.1 1.3-1.9 2.3-4.2 3.1-6.9.8-2.6 1.2-5.8 1.2-9.4 0-5-.9-9.4-2.6-13.4-2-3.9-4.5-7.2-7.5-9.9z"/><circle cx="99.5" cy="145.4" r="10.4"/></g></svg>