<svg xmlns="http://www.w3.org/2000/svg" viewBox="0 0 200 200" enable-background="new 0 0 200 200"><g><path d="M189.4 103.1c-3.4 10.4-15.2 23.2-30.8 33.4-18.3 11.9-39.1 18.5-58.6 18.5-8.3 0-16.1-1.2-23.6-3.1l17.2-17.2c2.1.2 4.2.3 6.4.3 34 0 61.7-23.5 68.8-35-3.2-5.2-10.6-12.8-20.9-19.6l14.4-14.4c13.8 9.7 24 21.3 27.1 30.9.6 2 .6 4.2 0 6.2zM177.1 22.9c-3.9-3.9-10.2-3.9-14.1 0l-28.5 28.5c-3.6-1.3-7.2-2.4-10.8-3.3-7.9-2-15.9-3-23.7-3-19.5 0-40.3 6.6-58.6 18.5-15.6 10.1-27.4 22.9-30.8 33.3-1 2.9-.5 6.1 1.2 8.7 5 7.6 14.3 18.1 26.9 27.5 2.6 2 5.4 3.9 8.4 5.8l-24.1 24.1c-3.9 3.9-3.9 10.2 0 14.1 1.9 1.9 4.5 2.9 7.1 2.9s5.1-1 7.1-2.9l101.8-102 14.7-14.7 23.4-23.4c3.9-3.8 3.9-10.2 0-14.1zm-107.1 67.1c0 3.5.6 6.9 1.7 10 1.2 3.3 2.9 6.4 5.1 9l-15.2 15.2c-3-1.7-5.9-3.6-8.6-5.5-9.4-6.6-16.6-14.1-21.2-19.7 6.4-9.2 24.6-25 48.2-31.3-6.1 5.5-10 13.5-10 22.3z"/></g></svg>