<svg xmlns="http://www.w3.org/2000/svg" viewBox="0 0 200 200" enable-background="new 0 0 200 200"><path d="M131 185.5c-16 0-31.1-6.2-42.4-17.6l-56.6-56.5c-11.3-11.3-17.5-26.4-17.5-42.4s6.2-31.1 17.6-42.4l5.7-5.7c4.2-4.2 9.7-6.4 15.6-6.4s11.4 2.3 15.6 6.4l18.4 18.4c4.2 4.2 6.4 9.7 6.4 15.6s-2.3 11.4-6.4 15.6l-9.4 9.1 42.4 42.4 9.2-9.2c4.2-4.2 9.7-6.4 15.6-6.4s11.4 2.3 15.6 6.4l18.4 18.4c4.2 4.2 6.4 9.7 6.4 15.6s-2.3 11.4-6.4 15.6l-5.7 5.7c-11.4 11.2-26.5 17.4-42.5 17.4zm-77.8-151c-.4 0-.9.1-1.4.6l-5.7 5.7c-7.5 7.4-11.6 17.5-11.6 28.2s4.2 20.7 11.7 28.3l56.6 56.6c7.6 7.6 17.6 11.7 28.3 11.7s20.7-4.2 28.3-11.7l5.7-5.7c.5-.5.6-1 .6-1.4 0-.4-.1-.9-.6-1.4l-18.5-18.4c-.5-.5-1-.6-1.4-.6s-.9.1-1.4.6l-16.3 16.3c-3.9 3.9-10.2 3.9-14.1 0l-56.6-56.6c-3.9-3.9-3.9-10.2 0-14.1l16.2-16.3c.5-.5.6-1 .6-1.4s-.1-.9-.6-1.4l-18.3-18.5c-.5-.4-1.1-.5-1.5-.5z"/></svg>