<svg xmlns="http://www.w3.org/2000/svg" viewBox="0 0 200 200" enable-background="new 0 0 200 200"><g><path d="M187.3 78c-9.9-39.4-45.7-68-87.3-68-25.1 0-48.7 10.3-65.7 28.5l-18.2-8.7 4.6 59.6 49.4-33.8-16.6-8c12.7-11.2 29.1-17.6 46.5-17.6 32.3 0 60.1 22.1 67.8 52.7 1.2 4.8 5.7 8 10.7 7.4l.5-.1c5.8-.7 9.7-6.3 8.3-12zM178.6 114.8l-51.2 31 16.2 8.9c-12.2 9.8-27.6 15.3-43.6 15.3-30.8 0-57.7-20.1-66.7-48.8-1.5-4.8-6.4-7.6-11.3-6.7-5.9 1.1-9.6 7.1-7.8 12.8 11.7 37 46.2 62.8 85.8 62.8 23.3 0 45.6-9.1 62.3-25.1l17.6 9.7-1.3-59.9z"/></g></svg>