<svg xmlns="http://www.w3.org/2000/svg" viewBox="0 0 200 200" enable-background="new 0 0 200 200"><path d="M186.2 46.5c-6.3 2.8-13.2 4.7-20.3 5.6 7.3-4.4 12.9-11.3 15.6-19.6-6.8 4.1-14.4 7-22.5 8.6-6.5-6.9-15.7-11.2-25.8-11.2-19.5 0-35.4 15.8-35.4 35.4 0 2.8.3 5.5.9 8.1-29.4-1.5-55.4-15.5-72.9-37-3 5.2-4.8 11.3-4.8 17.8 0 12.3 6.2 23.1 15.7 29.4-5.8-.2-11.2-1.8-16-4.4v.4c0 17.1 12.2 31.4 28.4 34.7-3 .8-6.1 1.2-9.3 1.2-2.3 0-4.5-.2-6.7-.6 4.5 14.1 17.6 24.3 33 24.6-12.1 9.5-27.3 15.1-43.9 15.1-2.9 0-5.7-.2-8.4-.5 15.7 10.1 34.2 15.9 54.2 15.9 65.1 0 100.6-53.9 100.6-100.6 0-1.5 0-3.1-.1-4.6 7-4.9 12.9-11.2 17.7-18.3z"/></svg>