<svg xmlns="http://www.w3.org/2000/svg" viewBox="0 0 200 200" enable-background="new 0 0 200 200"><g><path d="M100 10c-35.3 0-65.9 20.4-80.6 50h23.2c12.6-18.1 33.7-30 57.4-30s44.8 11.9 57.4 30h23.2c-14.7-29.6-45.3-50-80.6-50zm49 140c-12.6 12.4-29.9 20-49 20s-36.3-7.6-49-20h-25.8c16.2 24.1 43.7 40 74.8 40s58.7-15.9 74.8-40h-25.8zM51.5 80l-3.4 20.5c-.2 1.2-.4 2.4-.5 3.5l-.1.7-.6-3.7-3.4-21h-12l-3.5 20.4c-.3 1.8-.6 3.6-.9 5.5-.3-1.8-.5-3.6-.8-5.3l-3.2-20.6h-12.8l10 50h12.2l4-21.4c.2-1 .4-1.9.5-2.9l.4 2.8 3.5 21.4h12.1l10.8-50h-12.3zM114.6 80l-3.4 20.5c-.2 1.2-.4 2.4-.5 3.5l-.1.7-.6-3.7-3.4-21h-12l-3.5 20.5c-.3 1.8-.6 3.6-.9 5.5-.3-1.8-.5-3.6-.8-5.3l-3.2-20.7h-12.8l10 50h12.2l4-21.4c.2-1 .4-1.9.5-2.9l.4 2.8 3.5 21.5h12.1l10.9-50h-12.4zM177.7 80l-3.4 20.5c-.2 1.2-.4 2.4-.5 3.5l-.1.7-.6-3.7-3.4-21h-12l-3.5 20.5c-.3 1.8-.6 3.6-.9 5.5-.3-1.8-.5-3.6-.8-5.3l-3.2-20.7h-12.8l10 50h12.2l4-21.4c.2-1 .4-1.9.5-2.9l.4 2.8 3.5 21.4h12.1l10.8-50h-12.3z"/></g></svg>