<svg xmlns="http://www.w3.org/2000/svg" viewBox="0 0 393.8 91.5" enable-background="new 0 0 393.8 91.5"><path fill="#2088C2" d="M60.6 62.6c-4.4-4.9-8.5-10-12.3-15.2-.1-.1-.1-.3 0-.3 2.2-.2 4.3-.4 6.4-.7.2 0 .2-.3.1-.4-4.6-4.8-8.7-9.9-12.5-15.2-.1-.1-.1-.3 0-.3 1.8-.2 3.6-.4 5.5-.6.2 0 .3-.3.1-.4-3.5-3.7-6.7-7.6-9.6-11.7-.1-.1 0-.2.2-.2 1.4-.1 2.8-.3 4.1-.4.2 0 .2-.3.1-.4-5-5.2-9-11.2-12.2-16.7-.1-.2-.4-.2-.5 0-3.3 5.5-7.3 11.5-12.2 16.7-.1.1-.1.4.1.4 1.4.2 2.8.3 4.1.4.1 0 .2.1.1.2-2.9 4-6.1 8-9.6 11.7-.1.1-.1.4.1.4 1.8.2 3.6.4 5.5.6.1 0 .1.1 0 .2-3.6 5.3-7.8 10.5-12.4 15.3-.1.1-.1.4.1.4 2.1.3 4.3.5 6.5.7.1 0 .1.1.1.2-3.8 5.3-7.9 10.4-12.3 15.3-.2.2-.1.4.2.4 8.5 1.1 17 1.7 25.6 1.9.1 0 .2.1.2.3l-.8 7.3c0 .3.2.5.4.5h9.4c.3 0 .5-.2.4-.5l-.8-7.3c0-.1.1-.2.2-.3 8.6-.2 17.1-.8 25.6-1.9.2 0 .3-.2.1-.4z"/><g fill="#0089C6"><path d="M92.8 71.8c0 .7.6 1.1 1.2 1.1h10.8c.7 0 1.4-.5 1.5-1.2l7-56.7v-.1c0-.6-.3-1-.9-1h-11.799999999999999c-.7.1-.9.4-.9 1.1l-6.9 56.8zM157 39.1c0 1.8-.3 3.5-.4 5.2l-3.4 27.3c-.1.7-.7 1.2-1.4 1.2h-10c-.7 0-1.2-.4-1.2-1.1v-.1l3.3-26.5c.2-1.2.4-2.3.4-3.3v-.1c0-1.3-.3-2.3-.8-2.9-.8-1-2.1-1.4-4.1-1.4-3.9 0-8.4 1.1-8.4 1.1l-4.1 33.2c-.1.7-.7 1.2-1.5 1.2h-10c-.7 0-1.2-.4-1.2-1.1v-.1l4.4-35.5c.4-3.1 2.5-4.1 7.4-5.2 4.2-1 10.8-1.9 15.9-1.9 5.9 0 10.2.8 12.7 3.3 1.5 1.4 2.4 3.6 2.4 6.7zM260.3 14.7c0-.6-.3-1-1-1h-11.6c-.7.1-1 .4-1 1.1l-7.3 59.5c-1.1 6.1-3.6 6.2-7.9 6.4-1.7.1-3.3.1-4.4.2-1.2 0-1.8.4-2 1.8l-.6 4.7v.4c0 1.2.7 1.2 1.5 1.3 1.5.2 2.2.4 7.8.4 9.5 0 17.4-3 19-15.6l7.5-59.2zM231.9 61.3c-2.7 7.3-8.2 12.3-21.3 12.3-7.3 0-11.9-1.5-14.7-4.2-2.9-2.8-3.8-6.8-3.8-11.6 0-5.2 1.1-12.9 3-17.7 2.8-6.8 8.5-11.4 20.9-11.4 7.4 0 12.1 1.6 14.8 4.4 2.8 2.8 3.6 6.6 3.6 11.3.2 5.1-.7 12.2-2.5 16.9m-11.4-22.4c-1-1.2-2.7-1.7-5.4-1.7-5.9 0-7.7 2.7-8.8 8.5-.7 4-1.4 8.4-1.4 12.5 0 2.5.3 4.3 1.5 5.5 1 .9 2.7 1.4 5.2 1.4 6.1 0 7.8-2.8 8.9-9 .7-3.9 1.3-8.1 1.3-12 .1-2.4-.2-4.1-1.3-5.2M302.1 61.3c-2.7 7.3-8.2 12.3-21.3 12.3-7.3 0-11.9-1.5-14.7-4.2-2.9-2.8-3.8-6.8-3.8-11.6 0-5.2 1.1-12.9 3-17.7 2.8-6.9 8.5-11.4 21-11.4 7.4 0 12 1.6 14.8 4.4 2.8 2.8 3.6 6.6 3.6 11.3.1 5.1-.8 12.2-2.6 16.9m-11.4-22.4c-1-1.1-2.7-1.7-5.4-1.7-5.9 0-7.7 2.7-8.8 8.5-.7 4-1.4 8.4-1.4 12.5 0 2.5.3 4.3 1.6 5.5 1.1.9 2.7 1.4 5.2 1.4 6.1 0 7.8-2.8 8.9-9 .7-3.9 1.3-8.1 1.3-12 0-2.4-.3-4.1-1.4-5.2M350 59.9c-2.8 9.2-8.4 13.7-21.5 13.7-6.3 0-11.9-.9-15-2-3.2-1.1-4-2.4-4-4.7 0-1.1.2-2.3.4-3.8l5.7-47.6c.1-1.2.6-1.8 1.7-2h9.8c.7 0 1.2.3 1.2 1.1v.4l-1.3 10.4-.6 4.8s4.9-1.5 10.3-1.5 9.3 1.1 11.8 3.5c2.4 2.4 3.6 6.1 3.6 11.8.1 5.1-.7 10.9-2.1 15.9m-11.5-20.9c-1.1-1.4-2.8-1.7-5.5-1.7-3.3 0-7.5 1.1-7.5 1.1l-3.2 26.2s2.8.6 6.2.6c5.9 0 8.3-1.6 9.9-10.3.7-3.5 1.2-7.3 1.2-10.8-.1-2.5-.4-4.1-1.1-5.1"/><path d="M390.9 37.5c-.2.6-.6.8-1.2.8l-.3-.1c-.8-.1-5.5-1.2-9.8-1.2-2 0-4.5.2-6 1.5-1 .9-1.5 2.1-1.5 3.5v.1c.1 3.4 3.8 3.6 7.5 4.3 3.3.5 6.5 1.3 8.7 3.5 1.6 1.5 2.6 3.9 2.6 7.5 0 4-1.2 8.1-4.1 11.1-3.6 3.7-9.3 5.1-15.6 5.1-7 0-13.4-1.7-14.8-2.4-.2-.1-.7-.2-.7-1 0-.2 0-.4.1-.7l1.6-5.2c.3-.8.6-1 1.1-1 .2 0 .2 0 .4.1 1 .3 6.7 1.9 11.7 1.9 2.3 0 4.4-.4 5.8-1.6 1.2-1 1.7-2.4 1.7-3.8 0-1.7-.6-2.6-1.7-3.2-1.2-.6-2.7-.8-4.6-1.1-3-.6-7.2-1.1-9.9-3.7-1.5-1.7-2.5-3.9-2.5-7.3 0-3.6 1-7.4 3.3-10.2 4.1-4.9 11-5.7 16.2-5.7 6.5 0 11.5 1.4 13 1.9.6.2.7.6.7 1.1v.4l-1.7 5.4zM193.5 15c-1.2-.3-4.9-1.4-10.8-1.4-9.5 0-14.5 4.3-15.6 13l-.7 5.5-1.1 9-4 28.6-.1.6-.2 1.6c0 .6.6.9 1.2.9h9.7c.7 0 1.5-.2 1.6-1.2l.1-.6 4.3-29.9h10.4c.7 0 1.3-.5 1.4-1.2l.8-6.5v-.1c0-.7-.4-1.1-1.2-1.1h-10.3l.7-5.2c.5-3.4 2-4.4 5.8-4.4 2.2 0 4.7.4 5.7.6h.3c.7 0 .9-.3 1.1-1l1.5-5.5c.1-.2.1-.3.1-.4.1-.7-.1-1.1-.7-1.3z"/></g></svg>