<svg xmlns="http://www.w3.org/2000/svg" viewBox="0 0 200 200" enable-background="new 0 0 200 200"><g><path d="M96.5 46.7c1.2.8 2.6 1.9 4.2 3.4 1.5 1.5 3 3.5 4.4 5.7 1.4 2.1 2.6 4.6 3.7 7.5.9 2.9 1.3 6.3 1.3 10.2-.1 7.1-1.7 12.8-4.7 17-1.5 2.1-3 4-4.7 5.7-1.8 1.7-3.8 3.5-5.8 5.3-1.2 1.2-2.3 2.6-3.3 4.2-1.2 1.6-1.8 3.5-1.8 5.6 0 2.1.6 3.8 1.8 5.1 1 1.3 2 2.4 3 3.4l6.7 5.5c4.2 3.4 7.8 7.2 11 11.3 3 4.2 4.5 9.7 4.6 16.4 0 9.6-4.2 18.1-12.7 25.5-8.8 7.7-21.5 11.6-38.1 11.9-13.9-.1-24.3-3.1-31.1-8.9-6.9-5.4-10.4-11.9-10.4-19.4 0-3.7 1.1-7.8 3.4-12.3 2.2-4.5 6.1-8.5 11.9-11.9 6.4-3.7 13.2-6.1 20.2-7.3 7-1 12.8-1.6 17.4-1.7-1.4-1.9-2.7-3.9-3.8-6-1.3-2.1-2-4.6-2-7.5 0-1.8.2-3.2.7-4.4.4-1.2.8-2.4 1.2-3.4-2.2.3-4.4.4-6.4.4-10.6-.1-18.6-3.5-24.1-10-5.8-6.1-8.7-13.1-8.7-21.2 0-9.7 4.1-18.6 12.3-26.5 5.6-4.6 11.5-7.7 17.6-9.1 6-1.2 11.7-1.8 16.9-1.8h39.8l-12.2 7.2h-12.3zm7.6 114.1c0-5-1.6-9.4-4.9-13.2-3.5-3.5-8.9-7.9-16.3-13.1-1.3-.1-2.7-.2-4.5-.2-1-.1-3.6 0-7.8.4-4.1.6-8.3 1.5-12.6 2.8-1 .4-2.4 1-4.3 1.7-1.8.8-3.7 2-5.6 3.6-1.8 1.6-3.4 3.6-4.6 6-1.5 2.5-2.2 5.6-2.2 9.1 0 7 3.1 12.7 9.5 17.2 6 4.5 14.2 6.8 24.6 7 9.3-.1 16.5-2.2 21.4-6.2 4.9-3.8 7.3-8.9 7.3-15.1zm-27.6-58.1c5.2-.2 9.6-2.1 13-5.6 1.7-2.5 2.8-5.1 3.2-7.8.3-2.7.4-4.9.4-6.7 0-7.8-2-15.7-6-23.6-1.9-3.8-4.3-6.9-7.4-9.3-3.1-2.3-6.7-3.5-10.8-3.6-5.4.1-9.8 2.3-13.4 6.5-3 4.4-4.4 9.3-4.3 14.7 0 7.2 2.1 14.6 6.3 22.4 2 3.6 4.6 6.7 7.9 9.2 3.3 2.5 7 3.8 11.1 3.8zM175.4 60h-20.8v-20h-10.1v20h-20.8v10h20.8v20h10.1v-20h20.8z"/></g></svg>