<svg xmlns="http://www.w3.org/2000/svg" viewBox="0 0 200 200" enable-background="new 0 0 200 200"><g><path d="M90.3 131.9l-30.2-41.5c-3.2-4.5-2.3-10.7 2.2-14 4.5-3.2 10.7-2.3 14 2.2l23.7 32.6 66-89.1c3.3-4.4 9.5-5.4 14-2.1 4.4 3.3 5.4 9.5 2.1 14l-72.4 98c-4.9 6.5-14.6 6.5-19.4-.1zM168.6 85.9c.9 4.5 1.4 9.3 1.4 14.1 0 38.6-31.4 70-70 70s-70-31.4-70-70 31.4-70 70-70c10.8 0 21.1 2.5 30.2 6.9l12.1-16.3c-12.6-6.8-27-10.6-42.3-10.6-49.7 0-90 40.3-90 90s40.3 90 90 90 90-40.3 90-90c0-12-2.4-23.5-6.7-34l-14.7 19.9z"/></g></svg>