<svg xmlns="http://www.w3.org/2000/svg" viewBox="0 0 200 200" enable-background="new 0 0 200 200"><g><path d="M100 65c-19.3 0-35 15.7-35 35s15.7 35 35 35 35-15.7 35-35-15.7-35-35-35zm0 50c-8.3 0-15-6.7-15-15s6.7-15 15-15 15 6.7 15 15-6.7 15-15 15zM178.6 85c-2.1-11-6.4-21.1-12.4-30 4.3-4.7 4.2-12-.4-16.5l-4.2-4.2c-4.5-4.5-11.8-4.7-16.5-.4-8.9-6.1-19.1-10.3-30-12.4-.3-6.4-5.5-11.4-12-11.4h-6c-6.4 0-11.7 5.1-12 11.4-11 2.1-21.1 6.4-30 12.4-4.7-4.3-12-4.2-16.5.4l-4.2 4.2c-4.7 4.5-4.8 11.8-.6 16.5-6.1 8.9-10.4 19.1-12.4 30-6.3.3-11.4 5.6-11.4 12v6c0 6.4 5.1 11.7 11.4 12 2.1 11 6.4 21.1 12.4 30-4.3 4.7-4.2 12 .4 16.5l4.2 4.2c4.5 4.5 11.8 4.7 16.5.4 8.9 6.1 19.1 10.3 30 12.4.3 6.4 5.5 11.4 12 11.4h6c6.4 0 11.7-5.1 12-11.4 11-2.1 21.1-6.4 30-12.4 4.7 4.3 12 4.2 16.5-.4l4.2-4.2c4.5-4.5 4.7-11.8.4-16.5 6.1-8.9 10.3-19.1 12.4-30 6.4-.3 11.4-5.5 11.4-12v-6c.2-6.4-4.9-11.7-11.2-12zm-78.6 72.1c-31.5 0-57.1-25.6-57.1-57.1s25.6-57.1 57.1-57.1 57.1 25.6 57.1 57.1-25.6 57.1-57.1 57.1z"/></g></svg>