<svg xmlns="http://www.w3.org/2000/svg" viewBox="0 0 200 200" enable-background="new 0 0 200 200"><g><path d="M98 40c-4.1-11.5-15.1-19.7-28-19.7s-23.9 8.2-28 19.7h-22v20h22c4.1 11.5 15.1 19.7 28 19.7s23.9-8.2 28-19.7h82v-20h-82zm-28 19.7c-5.4 0-9.7-4.3-9.7-9.7s4.3-9.7 9.7-9.7 9.7 4.3 9.7 9.7-4.3 9.7-9.7 9.7zM88.3 140c-4.1-11.5-15.1-19.7-28-19.7s-23.9 8.2-28 19.7h-12.3v20h12.3c4.1 11.5 15.1 19.7 28 19.7s23.9-8.2 28-19.7h91.7v-20h-91.7zm-28 .3c5.4 0 9.7 4.4 9.7 9.7s-4.4 9.7-9.7 9.7c-5.4 0-9.7-4.3-9.7-9.7s4.3-9.7 9.7-9.7zM168.2 90c-4.2-11.3-15.1-19.4-27.9-19.4-12.8 0-23.7 8.1-27.9 19.4h-92.4v20h92.2c4 11.6 15.1 20 28.1 20 13 0 24.1-8.4 28.1-20h11.6v-20h-11.8zm-37.6 10.3c0-5.4 4.3-9.7 9.7-9.7 5.4 0 9.7 4.3 9.7 9.7 0 5.4-4.4 9.7-9.7 9.7-5.4 0-9.7-4.3-9.7-9.7z"/></g></svg>