<svg xmlns="http://www.w3.org/2000/svg" viewBox="0 0 200 200" enable-background="new 0 0 200 200"><g><path d="M168.2 33.6v-.2c-.1.1-.1.2-.2.2h.2zM168.1 19.4h-136.1c-6.6 0-12 5.2-12 11.7v137.2c0 6.4 5.4 11.7 12 11.7h136.1c6.6 0 12-5.2 12-11.7v-137.2c-.1-6.4-5.4-11.7-12-11.7zm-98.5 136.4h-24.4v-73.5h24.5v73.5zm-12.2-83.6h-.2c-8.2 0-13.5-5.7-13.5-12.7 0-7.2 5.5-12.7 13.8-12.7s13.5 5.5 13.7 12.7c.1 7.1-5.3 12.7-13.8 12.7zm102.4 83.6h-24.5v-39.4c0-9.9-3.5-16.6-12.4-16.6-6.8 0-10.8 4.6-12.5 8.9-.6 1.6-.8 3.8-.8 6v41.1h-24.4s.3-66.7 0-73.6h24.5v10.4c3.2-5 9.1-12.2 22-12.2 16.1 0 28.2 10.5 28.2 33.1v42.3z"/></g></svg>