<svg xmlns="http://www.w3.org/2000/svg" viewBox="0 0 200 200" enable-background="new 0 0 200 200"><g><path d="M100 30c26.9 0 48.8 21.9 48.8 48.8 0 12.2-8.1 33.6-20.6 54.5-12 20-22.8 31.2-28.2 35.4-5.4-4.2-16.2-15.4-28.2-35.4-12.5-20.9-20.6-42.3-20.6-54.5 0-26.9 21.9-48.8 48.8-48.8m0-20c-38 0-68.8 30.8-68.8 68.8s48 111.2 68.8 111.2 68.8-73.2 68.8-111.2-30.8-68.8-68.8-68.8zM100 110c-16.5 0-30-13.5-30-30s13.5-30 30-30 30 13.5 30 30-13.5 30-30 30zm0-40c-5.5 0-10 4.5-10 10s4.5 10 10 10 10-4.5 10-10-4.5-10-10-10z"/></g></svg>