<svg xmlns="http://www.w3.org/2000/svg" viewBox="0 0 200 200" enable-background="new 0 0 200 200"><g><path d="M95 95h-75v-63c0-6.6 5.4-12 12-12h63v75zm-55-20h35v-35h-35v35zM50 50h15v15h-15zM35 135h15v-30h-30v45h15zM95 120v-15h-30v45h-15v15h-30v3c0 6.6 5.4 12 12 12h63v-15h-15v-15h15v-15h-15v-15h15zM168 20h-33v15h15v15h30v-18c0-6.6-5.4-12-12-12zM105 35v60h15v-75h-15zM150 65h-15v30h15v-15h15v15h15v-30h-15zM168 180h-63v-75h75v63c0 6.6-5.4 12-12 12zm-43-20h35v-35h-35v35zM135 135h15v15h-15z"/></g></svg>