<svg xmlns="http://www.w3.org/2000/svg" viewBox="0 0 200 200" enable-background="new 0 0 200 200"><g><path d="M100 190c-49.6 0-90-40.4-90-90s40.4-90 90-90 90 40.4 90 90-40.4 90-90 90zm0-160c-38.6 0-70 31.4-70 70s31.4 70 70 70 70-31.4 70-70-31.4-70-70-70zM100 160c-15.9 0-30.8-6.2-42.1-17.3-3.9-3.9-4-10.2-.1-14.1 3.9-3.9 10.2-4 14.1-.1 7.5 7.5 17.5 11.6 28.1 11.6 11.1 0 21.4-4.5 29-12.5 3.8-4 10.1-4.2 14.1-.4s4.2 10.1.4 14.1c-11.2 11.8-27.1 18.7-43.5 18.7z"/><circle cx="130" cy="80" r="15"/><path d="M86.3 93c-1.4 0-2.8-.3-4.1-.9-1.3-.6-5.6-2.1-9.7-2.1-4.2 0-8.7 1.7-9.7 2.1-5 2.3-11 .1-13.2-5-2.3-5-.1-11 5-13.2.9-.4 8.8-3.9 18-3.9s17.1 3.5 18 3.9c5 2.3 7.2 8.2 5 13.2-1.8 3.7-5.5 5.9-9.3 5.9z"/></g></svg>