<svg xmlns="http://www.w3.org/2000/svg" viewBox="0 0 200 200" enable-background="new 0 0 200 200"><g><path d="M175 180h-8c-6.6 0-12-5.4-12-12v-18.2c0-8.3-4.7-10.6-28-13.8-.9-.1-1.7-.2-2.6-.4-2 .7-6.2 4-8.5 5.8-5.5 4.2-10.2 7.9-15.9 7.9-5.7 0-10.4-3.6-15.9-7.9-2.3-1.8-6.5-5-8.5-5.7l-3.3.5c-22.7 3.2-27.3 5.5-27.3 13.8v18c0 6.6-5.4 12-12 12h-8v-30c0-12.3 5.7-21.6 16.4-26.8 8.1-4 17.9-5.3 28.2-6.7 1.3-.2 2.6-.4 3.9-.5 8.5-1.2 16.1 4.6 22.8 9.8l3.6 2.7c1.2-.9 2.6-1.9 3.7-2.8 6.7-5.2 14.3-11 22.7-9.8 1.1.2 2.2.3 3.3.4 10.5 1.4 20.5 2.7 28.6 6.7 10.9 5.3 16.7 14.6 16.7 26.9v30.1zM100 110c-24.2 0-42.5-19.3-42.5-45s18.3-45 42.5-45 42.5 19.3 42.5 45-18.3 45-42.5 45zm0-70c-14.8 0-22.5 12.6-22.5 25s7.7 25 22.5 25 22.5-12.6 22.5-25-7.7-25-22.5-25z"/></g></svg>