<svg xmlns="http://www.w3.org/2000/svg" viewBox="0 0 200 200" enable-background="new 0 0 200 200"><path d="M189.4 96.9c-3.4-10.4-15.2-23.2-30.8-33.4-18.3-11.9-39.1-18.5-58.6-18.5s-40.3 6.6-58.6 18.5c-15.6 10.2-27.4 23-30.8 33.4-1 2.9-.5 6.1 1.2 8.7 11.3 17.1 44.4 49.4 88.2 49.4 19.5 0 40.3-6.6 58.6-18.5 15.6-10.2 27.4-23 30.8-33.4.6-2 .6-4.2 0-6.2zm-89.4 38.1c-32.4 0-57.7-22.9-68.2-35.9 6.4-9.3 24.6-25.1 48.2-31.4-6.1 5.5-10 13.5-10 22.3 0 16.5 13.5 30 30 30s30-13.5 30-30c0-8.8-3.9-16.8-10-22.3 24.5 6.5 43.1 23.2 48.8 32.3-7.1 11.4-34.8 35-68.8 35z"/></svg>