<svg xmlns="http://www.w3.org/2000/svg" viewBox="0 0 200 200" enable-background="new 0 0 200 200"><g><path d="M20 96.6c-2.6 0-5.1-1-7.1-2.9-3.9-4-3.9-10.3 0-14.2 23.3-23.3 54.2-36.1 87.1-36.1 32.9 0 63.8 12.8 87.1 36.1 3.9 3.9 3.9 10.2 0 14.1-3.9 3.9-10.2 3.9-14.1 0-19.5-19.5-45.4-30.2-72.9-30.2-27.5 0-53.4 10.7-72.9 30.2-2.1 2-4.6 3-7.2 3zM50 126.6c-2.6 0-5.1-1-7.1-2.9-3.9-3.9-3.9-10.2 0-14.1 15.3-15.3 35.5-23.7 57-23.7s41.8 8.4 57 23.7c3.9 3.9 3.9 10.2 0 14.1-3.9 3.9-10.2 3.9-14.1 0-11.5-11.5-26.7-17.8-42.9-17.8s-31.4 6.3-42.9 17.8c-1.8 1.9-4.4 2.9-7 2.9zM80 156.6c-2.6 0-5.1-1-7.1-2.9-3.9-3.9-3.9-10.2 0-14.1 7.2-7.2 16.8-11.2 27.1-11.2 10.2 0 19.8 4 27.1 11.2 3.9 3.9 3.9 10.2 0 14.1-3.9 3.9-10.2 3.9-14.1 0-3.5-3.5-8-5.4-12.9-5.4s-9.5 1.9-12.9 5.4c-2.1 1.9-4.6 2.9-7.2 2.9z"/></g></svg>